<svg xmlns="http://www.w3.org/2000/svg" viewBox="0 0 128 128"><defs><style>.cls-1,.cls-2,.cls-4{fill:none;stroke-width:4px;}.cls-1,.cls-2{stroke:#4d4d4d;stroke-miterlimit:10;}.cls-2{stroke-linecap:round;}.cls-3{fill:red;}.cls-4{stroke:red;stroke-linejoin:round;}</style></defs><title>favicon</title><g id="小电视"><rect class="cls-1" x="11" y="34.08824" width="106" height="69.23863" rx="3"/><rect class="cls-1" x="19.11765" y="42.57977" width="90.44118" height="52.25557" rx="3"/><path class="cls-1" d="M24.55882,103.32687c7.20589,15.90842,14.55883,0,14.55883,0"/><path class="cls-1" d="M103.95312,103.32687c-7.20588,15.90842-14.55882,0-14.55882,0"/><path class="cls-2" d="M31.83824,67.91176,47.72059,57.47059"/><path class="cls-2" d="M62.76041,77.87017c0,4.4264-3.17681,8.01471-7.09559,8.01471s-7.09559-3.58831-7.09559-8.01471"/><path class="cls-2" d="M77.59559,77.87017c0,4.4264-3.1768,8.01471-7.09559,8.01471s-7.09559-3.58831-7.09559-8.01471"/><path class="cls-2" d="M96.67371,67.91176,80.79136,57.47059"/><line class="cls-2" x1="63.40441" y1="34.08824" x2="37.0043" y2="21.44118"/><line class="cls-2" x1="67.57353" y1="34.08824" x2="85.80606" y2="10.55882"/></g><g id="Download"><polygon class="cls-3" points="76.973 77.842 76.803 71.534 76.857 65.228 76.904 58.921 76.696 52.637 84.318 52.701 91.943 52.928 99.574 52.324 107.084 52.927 107.462 60.006 106.924 67.394 107.532 74.788 107.256 82.189 107.434 89.581 107.204 96.643 114.043 97.125 121.099 97.035 115.965 101.554 110.993 106.08 106.422 111.023 101.703 115.821 96.611 120.24 91.821 125.127 86.852 120.439 81.98 115.81 77.538 110.732 72.218 106.558 67.626 101.621 63.033 96.889 69.725 97.194 76.788 96.969 76.937 90.595 76.508 84.225 76.973 77.842"/><polygon class="cls-4" points="76.973 77.842 76.803 71.534 76.857 65.228 76.904 58.921 76.696 52.637 84.318 52.701 91.943 52.928 99.574 52.324 107.084 52.927 107.462 60.006 106.924 67.394 107.532 74.788 107.256 82.189 107.434 89.581 107.204 96.643 114.043 97.125 121.099 97.035 115.965 101.554 110.993 106.08 106.422 111.023 101.703 115.821 96.611 120.24 91.821 125.127 86.852 120.439 81.98 115.81 77.538 110.732 72.218 106.558 67.626 101.621 63.033 96.889 69.725 97.194 76.788 96.969 76.937 90.595 76.508 84.225 76.973 77.842"/></g></svg>